<svg width="414" height="182" viewBox="0 0 414 182" fill="none" xmlns="http://www.w3.org/2000/svg">
<path d="M49.0057 146H7.03125V36.9091H48.5795C59.8011 36.9091 69.4957 39.093 77.6634 43.4609C85.8665 47.7933 92.1875 54.0433 96.6264 62.2109C101.101 70.343 103.338 80.0909 103.338 91.4545C103.338 102.818 101.119 112.584 96.6797 120.751C92.2408 128.884 85.9553 135.134 77.8232 139.501C69.6911 143.834 60.0852 146 49.0057 146ZM36.6477 120.858H47.9403C53.3381 120.858 57.9368 119.988 61.7365 118.248C65.5717 116.508 68.4837 113.507 70.4723 109.246C72.4965 104.984 73.5085 99.054 73.5085 91.4545C73.5085 83.8551 72.4787 77.9247 70.419 73.6633C68.3949 69.402 65.4119 66.4013 61.4702 64.6612C57.5639 62.9212 52.7699 62.0511 47.0881 62.0511H36.6477V120.858ZM153.672 147.491C144.936 147.491 137.407 145.822 131.086 142.484C124.801 139.111 119.954 134.281 116.545 127.996C113.171 121.675 111.484 114.111 111.484 105.304C111.484 96.8523 113.189 89.4659 116.598 83.1449C120.007 76.8239 124.819 71.9055 131.033 68.3899C137.248 64.8743 144.581 63.1165 153.032 63.1165C159.211 63.1165 164.805 64.0753 169.812 65.9929C174.819 67.9105 179.098 70.6982 182.649 74.3558C186.2 77.978 188.934 82.3814 190.852 87.5661C192.77 92.7507 193.729 98.5923 193.729 105.091V111.909H120.646V95.7159H166.669C166.633 93.3722 166.03 91.3125 164.858 89.5369C163.721 87.7259 162.177 86.3232 160.224 85.3288C158.306 84.299 156.122 83.7841 153.672 83.7841C151.292 83.7841 149.108 84.299 147.12 85.3288C145.131 86.3232 143.533 87.7081 142.326 89.4837C141.154 91.2592 140.532 93.3366 140.461 95.7159V113.188C140.461 115.815 141.012 118.159 142.113 120.219C143.214 122.278 144.794 123.894 146.854 125.066C148.913 126.238 151.399 126.824 154.311 126.824C156.335 126.824 158.182 126.54 159.851 125.972C161.555 125.403 163.011 124.587 164.219 123.521C165.426 122.42 166.314 121.107 166.882 119.58H193.729C192.805 125.261 190.621 130.197 187.177 134.388C183.732 138.543 179.169 141.774 173.487 144.082C167.841 146.355 161.236 147.491 153.672 147.491ZM283.134 64.1818L255.648 146H221.557L194.071 64.1818H224.966L238.176 118.301H239.028L252.239 64.1818H283.134Z" fill="#F75023"/>
<path d="M288.369 146H256.409L292.418 36.9091H332.901L368.909 146H336.949L313.085 66.9517H312.233L288.369 146ZM282.403 102.96H342.489V125.119H282.403V102.96ZM406.246 36.9091V146H376.842V36.9091H406.246Z" fill="black"/>
</svg>
