<svg width="254" height="182" viewBox="0 0 254 182" fill="none" xmlns="http://www.w3.org/2000/svg">
<path d="M31.8537 146H3.51562L40.3232 36.9091H75.4261L112.234 146H83.8956L58.2742 64.3949H57.4219L31.8537 146ZM28.0717 103.067H87.3047V123.095H28.0717V103.067ZM150.027 36.9091V146H123.979V36.9091H150.027Z" fill="#73C066"/>
<path d="M83.6818 146L70.1364 99.4545H82.5682L89.5909 129.955H89.9773L98 99.4545H108.136L116.159 130.023H116.545L123.591 99.4545H136L122.477 146H111.636L103.25 117.773H102.886L94.5 146H83.6818ZM153.091 146.659C149.439 146.659 146.288 145.939 143.636 144.5C141 143.045 138.97 140.977 137.545 138.295C136.136 135.598 135.432 132.394 135.432 128.682C135.432 125.076 136.144 121.924 137.568 119.227C138.992 116.515 141 114.409 143.591 112.909C146.182 111.394 149.235 110.636 152.75 110.636C155.235 110.636 157.508 111.023 159.568 111.795C161.629 112.568 163.409 113.712 164.909 115.227C166.409 116.742 167.576 118.614 168.409 120.841C169.242 123.053 169.659 125.591 169.659 128.455V131.227H139.318V124.773H159.318C159.303 123.591 159.023 122.538 158.477 121.614C157.932 120.689 157.182 119.97 156.227 119.455C155.288 118.924 154.205 118.659 152.977 118.659C151.735 118.659 150.621 118.939 149.636 119.5C148.652 120.045 147.871 120.795 147.295 121.75C146.72 122.689 146.417 123.758 146.386 124.955V131.523C146.386 132.947 146.667 134.197 147.227 135.273C147.788 136.333 148.583 137.159 149.614 137.75C150.644 138.341 151.871 138.636 153.295 138.636C154.28 138.636 155.174 138.5 155.977 138.227C156.78 137.955 157.47 137.553 158.045 137.023C158.621 136.492 159.053 135.841 159.341 135.068L169.545 135.364C169.121 137.652 168.189 139.644 166.75 141.341C165.326 143.023 163.455 144.333 161.136 145.273C158.818 146.197 156.136 146.659 153.091 146.659ZM175.335 146V99.4545H186.449V117.068H186.676C187.131 116.008 187.775 114.985 188.608 114C189.456 113.015 190.532 112.212 191.835 111.591C193.153 110.955 194.729 110.636 196.562 110.636C198.987 110.636 201.252 111.273 203.358 112.545C205.479 113.818 207.191 115.78 208.494 118.432C209.797 121.083 210.449 124.462 210.449 128.568C210.449 132.523 209.82 135.833 208.562 138.5C207.32 141.167 205.638 143.167 203.517 144.5C201.411 145.833 199.07 146.5 196.494 146.5C194.737 146.5 193.214 146.212 191.926 145.636C190.638 145.061 189.555 144.303 188.676 143.364C187.812 142.424 187.146 141.417 186.676 140.341H186.335V146H175.335ZM186.222 128.545C186.222 130.424 186.472 132.061 186.972 133.455C187.487 134.848 188.222 135.932 189.176 136.705C190.146 137.462 191.305 137.841 192.653 137.841C194.017 137.841 195.176 137.462 196.131 136.705C197.085 135.932 197.805 134.848 198.29 133.455C198.79 132.061 199.04 130.424 199.04 128.545C199.04 126.667 198.79 125.038 198.29 123.659C197.805 122.28 197.085 121.212 196.131 120.455C195.191 119.697 194.032 119.318 192.653 119.318C191.29 119.318 190.131 119.689 189.176 120.432C188.222 121.174 187.487 122.235 186.972 123.614C186.472 124.992 186.222 126.636 186.222 128.545Z" fill="black"/>
<path d="M224.67 146H205.853V95.0909H224.646C229.833 95.0909 234.299 96.1101 238.044 98.1484C241.806 100.17 244.706 103.087 246.744 106.898C248.783 110.693 249.802 115.234 249.802 120.521C249.802 125.824 248.783 130.381 246.744 134.192C244.723 138.004 241.831 140.929 238.069 142.967C234.307 144.989 229.841 146 224.67 146ZM218.158 135.51H224.198C227.049 135.51 229.46 135.029 231.432 134.068C233.42 133.09 234.92 131.508 235.931 129.32C236.959 127.116 237.472 124.183 237.472 120.521C237.472 116.858 236.959 113.942 235.931 111.771C234.904 109.583 233.387 108.009 231.382 107.048C229.393 106.07 226.941 105.581 224.024 105.581H218.158V135.51Z" fill="#45793C"/>
<path d="M31.8537 146H3.51562L40.3232 36.9091H75.4261L112.234 146H83.8956L58.2742 64.3949H57.4219L31.8537 146ZM28.0717 103.067H87.3047V123.095H28.0717V103.067Z" fill="#73C066"/>
<path d="M150.027 36.9091V146H123.979V36.9091H150.027Z" fill="#73C066"/>
<path d="M83.6818 146L70.1364 99.4545H82.5682L89.5909 129.955H89.9773L98 99.4545H108.136L116.159 130.023H116.545L123.591 99.4545H136L122.477 146H111.636L103.25 117.773H102.886L94.5 146H83.6818Z" fill="black"/>
<path d="M153.091 146.659C149.439 146.659 146.288 145.939 143.636 144.5C141 143.045 138.97 140.977 137.545 138.295C136.136 135.598 135.432 132.394 135.432 128.682C135.432 125.076 136.144 121.924 137.568 119.227C138.992 116.515 141 114.409 143.591 112.909C146.182 111.394 149.235 110.636 152.75 110.636C155.235 110.636 157.508 111.023 159.568 111.795C161.629 112.568 163.409 113.712 164.909 115.227C166.409 116.742 167.576 118.614 168.409 120.841C169.242 123.053 169.659 125.591 169.659 128.455V131.227H139.318V124.773H159.318C159.303 123.591 159.023 122.538 158.477 121.614C157.932 120.689 157.182 119.97 156.227 119.455C155.288 118.924 154.205 118.659 152.977 118.659C151.735 118.659 150.621 118.939 149.636 119.5C148.652 120.045 147.871 120.795 147.295 121.75C146.72 122.689 146.417 123.758 146.386 124.955V131.523C146.386 132.947 146.667 134.197 147.227 135.273C147.788 136.333 148.583 137.159 149.614 137.75C150.644 138.341 151.871 138.636 153.295 138.636C154.28 138.636 155.174 138.5 155.977 138.227C156.78 137.955 157.47 137.553 158.045 137.023C158.621 136.492 159.053 135.841 159.341 135.068L169.545 135.364C169.121 137.651 168.189 139.644 166.75 141.341C165.326 143.023 163.455 144.333 161.136 145.273C158.818 146.197 156.136 146.659 153.091 146.659Z" fill="black"/>
<path d="M175.335 146V99.4545H186.449V117.068H186.676C187.131 116.008 187.775 114.985 188.608 114C189.456 113.015 190.532 112.212 191.835 111.591C193.153 110.955 194.729 110.636 196.562 110.636C198.987 110.636 201.252 111.273 203.358 112.545C205.479 113.818 207.191 115.78 208.494 118.432C209.797 121.083 210.449 124.462 210.449 128.568C210.449 132.523 209.82 135.833 208.562 138.5C207.32 141.167 205.638 143.167 203.517 144.5C201.411 145.833 199.07 146.5 196.494 146.5C194.737 146.5 193.214 146.212 191.926 145.636C190.638 145.061 189.555 144.303 188.676 143.364C187.812 142.424 187.146 141.417 186.676 140.341H186.335V146H175.335ZM186.222 128.545C186.222 130.424 186.472 132.061 186.972 133.455C187.487 134.848 188.222 135.932 189.176 136.705C190.146 137.462 191.305 137.841 192.653 137.841C194.017 137.841 195.176 137.462 196.131 136.705C197.085 135.932 197.805 134.848 198.29 133.455C198.79 132.061 199.04 130.424 199.04 128.545C199.04 126.667 198.79 125.038 198.29 123.659C197.805 122.28 197.085 121.212 196.131 120.455C195.191 119.697 194.032 119.318 192.653 119.318C191.29 119.318 190.131 119.689 189.176 120.432C188.222 121.174 187.487 122.235 186.972 123.614C186.472 124.992 186.222 126.636 186.222 128.545Z" fill="black"/>
<path d="M224.67 146H205.853V95.0909H224.646C229.833 95.0909 234.299 96.1101 238.044 98.1484C241.806 100.17 244.706 103.087 246.744 106.898C248.783 110.693 249.802 115.234 249.802 120.521C249.802 125.824 248.783 130.381 246.744 134.192C244.723 138.004 241.831 140.929 238.069 142.967C234.307 144.989 229.841 146 224.67 146ZM218.158 135.51H224.198C227.049 135.51 229.46 135.029 231.432 134.068C233.42 133.09 234.92 131.508 235.931 129.32C236.959 127.116 237.472 124.183 237.472 120.521C237.472 116.858 236.959 113.942 235.931 111.771C234.904 109.583 233.387 108.009 231.382 107.048C229.393 106.07 226.941 105.581 224.024 105.581H218.158V135.51Z" fill="#427739"/>
</svg>
